<?xml version="1.0" standalone="no"?>
<!DOCTYPE svg PUBLIC "-//W3C//DTD SVG 20010904//EN"
 "http://www.w3.org/TR/2001/REC-SVG-20010904/DTD/svg10.dtd">
<svg version="1.0" xmlns="http://www.w3.org/2000/svg"
 width="600.000000pt" height="600.000000pt" viewBox="0 0 600.000000 600.000000"
 preserveAspectRatio="xMidYMid meet">

<g transform="translate(0.000000,600.000000) scale(0.100000,-0.100000)"
fill="#000000" stroke="none">
<path d="M2715 5684 c-622 -68 -1176 -334 -1621 -778 -450 -450 -712 -1003
-779 -1638 -60 -583 79 -1187 390 -1688 212 -341 534 -663 875 -875 501 -311
1105 -450 1688 -390 635 67 1188 329 1638 779 450 450 712 1003 779 1638 60
583 -79 1184 -390 1688 -211 340 -534 663 -875 875 -504 313 -1117 452 -1705
389z m475 -44 c359 -27 656 -108 985 -270 787 -385 1328 -1136 1450 -2010 19
-140 31 -378 21 -443 l-7 -47 -99 0 c-80 0 -99 3 -104 16 -3 9 -6 73 -6 142 0
533 -196 1076 -543 1507 -78 97 -265 284 -362 361 -294 234 -677 415 -1035
488 -174 35 -292 46 -490 46 -198 0 -316 -11 -490 -46 -358 -73 -741 -254
-1035 -488 -97 -77 -284 -264 -362 -361 -347 -431 -543 -974 -543 -1507 0 -69
-3 -133 -6 -142 -5 -13 -24 -16 -104 -16 l-99 0 -7 47 c-10 65 2 303 21 443
147 1054 902 1913 1930 2195 287 78 586 107 885 85z m75 -271 c261 -26 527
-104 780 -228 489 -240 856 -607 1096 -1096 168 -344 240 -657 240 -1045 0
-388 -72 -701 -240 -1045 -240 -489 -607 -856 -1096 -1096 -343 -168 -657
-240 -1045 -240 -388 0 -702 72 -1045 240 -489 240 -856 607 -1096 1096 -168
344 -240 657 -240 1045 0 388 72 701 240 1045 237 483 603 852 1082 1089 418
208 846 284 1324 235z m-2573 -3563 c18 2 48 5 65 8 18 2 30 0 28 -5 -7 -11
47 0 62 13 10 8 12 7 7 -6 -4 -9 -2 -16 3 -14 5 2 48 -54 96 -124 113 -168
188 -260 322 -393 315 -316 713 -541 1137 -645 228 -56 311 -65 588 -65 201 0
278 4 363 18 274 46 500 119 732 236 248 126 437 262 630 456 135 134 210 226
322 393 47 70 93 131 101 136 9 5 12 5 9 -1 -6 -10 159 -9 186 2 9 4 17 3 17
-2 0 -14 -116 -217 -168 -295 -206 -305 -492 -581 -802 -773 -848 -525 -1932
-525 -2780 0 -310 192 -596 468 -802 773 -63 94 -168 282 -168 302 1 13 2 13
10 -1 6 -11 20 -15 42 -13z"/>
<path d="M2775 5334 c-193 -28 -259 -40 -375 -70 -735 -191 -1337 -740 -1594
-1452 -14 -40 -26 -74 -26 -75 0 -1 39 -1 88 -1 51 1 93 -3 101 -10 11 -8 13
-8 7 2 -8 14 19 12 43 -2 9 -6 12 -5 8 1 -4 7 12 9 46 6 57 -4 81 -4 142 -2
22 0 42 0 45 -1 22 -7 139 -4 155 3 18 10 19 9 5 -8 -10 -13 -11 -16 -2 -11 7
4 34 9 58 11 34 2 44 -1 40 -11 -3 -7 21 2 52 20 215 126 442 179 740 174
l173 -3 -1 -369 0 -368 22 6 c13 3 29 6 36 6 9 0 12 86 12 395 l0 395 456 0
c510 0 507 0 539 67 24 49 7 106 -38 133 -30 19 -54 20 -494 20 l-463 0 0 295
0 295 508 0 c560 0 572 -1 705 -64 148 -68 262 -180 337 -328 55 -110 74 -204
68 -341 -8 -193 -71 -333 -212 -472 -62 -62 -101 -90 -166 -123 -133 -66 -175
-74 -422 -79 -205 -5 -218 -6 -218 -24 0 -10 5 -19 11 -19 8 0 8 -4 1 -13 -7
-8 -12 -150 -14 -407 l-3 -395 -297 -3 -298 -2 0 120 0 120 -40 0 -41 0 3
-127 3 -128 80 -7 c99 -9 214 -32 314 -63 42 -12 103 -25 137 -28 97 -8 166
-54 212 -141 l27 -51 3 -272 3 -273 -95 0 -96 0 0 120 0 120 -60 0 -60 0 0 75
0 74 58 3 57 3 3 47 c6 88 -47 140 -107 107 -47 -27 -51 -47 -51 -306 l0 -243
-90 0 -90 0 0 253 c0 305 6 334 81 409 47 47 48 49 26 57 -42 16 -210 49 -284
57 l-73 7 0 -49 c0 -158 -12 -701 -16 -713 -4 -12 -34 -13 -182 -8 -208 8
-319 25 -459 72 -193 65 -348 160 -488 300 -288 288 -387 665 -277 1050 l29
100 -31 5 c-17 3 -79 5 -138 5 -59 -1 -105 2 -103 5 2 3 -27 5 -63 5 l-67 0
-7 -40 c-10 -63 -9 -326 3 -433 63 -586 364 -1151 814 -1529 329 -275 699
-447 1132 -525 111 -20 161 -23 383 -23 222 0 272 3 383 23 767 138 1387 601
1723 1287 117 241 186 471 219 735 19 155 20 376 3 382 -7 2 -63 4 -125 3 -73
0 -109 3 -106 10 4 6 1 6 -6 -1 -7 -6 -31 -8 -61 -4 -30 4 -47 3 -43 -3 3 -6
1 -7 -6 -3 -7 4 -80 9 -164 10 -146 3 -154 4 -191 29 -21 15 -46 27 -55 28 -9
0 -25 2 -37 4 -20 4 -21 -1 -27 -109 -8 -162 -45 -239 -139 -287 l-38 -19 0
-125 0 -125 -95 0 -95 0 0 124 0 124 -32 20 c-90 56 -126 129 -135 272 -3 54
-10 97 -14 94 -4 -2 -40 7 -80 21 -40 14 -74 23 -76 21 -2 -2 7 -21 21 -41 42
-62 47 -97 44 -372 l-3 -258 -90 0 -90 0 -3 118 -3 117 -59 0 -60 0 0 80 0 80
61 0 61 0 -4 61 c-5 70 -28 99 -79 99 -52 0 -69 -29 -69 -118 0 -44 -3 -161
-7 -261 l-6 -182 -86 3 -86 3 0 275 c0 260 1 278 21 321 l22 46 -42 -4 c-40
-5 -42 -4 -60 33 -11 22 -18 48 -17 58 6 40 22 45 202 50 216 7 244 10 353 48
85 30 187 87 226 128 13 14 14 14 5 0 -9 -13 -8 -13 8 -1 9 7 17 20 17 27 0 8
4 14 9 14 5 0 31 22 57 48 27 26 65 60 84 74 l35 27 180 -4 c99 -2 182 -4 185
-5 3 -1 10 -1 15 0 6 1 39 1 75 0 36 -1 88 -3 115 -4 28 -1 56 -5 64 -10 9 -6
12 -5 8 1 -6 10 24 10 261 0 l83 -4 -7 31 c-12 57 -66 210 -110 309 -278 630
-851 1120 -1514 1296 -220 59 -333 73 -585 76 -126 2 -243 1 -260 -1z m1013
-3041 l-3 -88 -91 4 c-79 3 -92 1 -98 -14 -11 -31 3 -48 107 -130 117 -92 141
-129 141 -215 1 -75 -34 -135 -93 -167 -41 -21 -56 -23 -208 -23 l-164 0 3 88
3 87 122 -4 c114 -3 122 -2 132 17 6 11 11 25 11 30 0 6 -52 54 -116 108 -63
54 -124 112 -134 129 -53 85 -25 191 65 246 26 16 51 19 178 19 l148 0 -3 -87z
m372 -33 l0 -120 70 0 70 0 0 120 0 120 100 0 100 0 -2 -357 -3 -358 -95 0
-95 0 -3 138 -3 137 -69 0 -70 0 0 -140 0 -140 -95 0 -95 0 0 360 0 360 95 0
95 0 0 -120z"/>
<path d="M2075 3314 c-83 -20 -168 -55 -158 -65 15 -15 194 -57 276 -64 62 -6
77 -5 77 6 0 11 2 11 10 -1 9 -13 10 -13 10 0 0 13 1 13 10 0 6 -9 10 -10 10
-3 0 6 9 10 20 8 18 -4 20 2 20 66 l0 69 -107 -1 c-60 0 -135 -7 -168 -15z"/>
<path d="M1768 3160 c-62 -54 -123 -147 -148 -227 -11 -36 -20 -71 -20 -79 0
-12 61 -14 375 -14 l375 0 0 134 0 133 -92 7 c-113 9 -275 39 -353 66 -32 11
-65 20 -74 20 -9 0 -37 -18 -63 -40z"/>
<path d="M4160 3071 c0 -95 2 -104 25 -126 31 -32 74 -33 103 -2 19 20 22 35
22 104 l0 81 -36 17 c-20 10 -54 20 -75 22 l-39 6 0 -102z"/>
<path d="M2476 3033 c-3 -42 -6 -102 -6 -135 l0 -58 40 0 40 0 0 135 0 135
-34 0 -33 0 -7 -77z"/>
<path d="M1604 2703 c8 -65 66 -180 122 -242 64 -71 71 -74 135 -50 74 29 247
67 333 74 39 3 90 8 114 11 l42 5 0 125 0 124 -376 0 -377 0 7 -47z"/>
<path d="M2124 2421 c-99 -18 -231 -56 -248 -72 -13 -12 84 -55 179 -79 55
-14 111 -20 187 -20 l108 0 0 95 0 95 -62 -1 c-35 0 -108 -9 -164 -18z"/>
</g>
</svg>
